<?xml version="1.0" standalone="no"?>
<!DOCTYPE svg PUBLIC "-//W3C//DTD SVG 20010904//EN"
 "http://www.w3.org/TR/2001/REC-SVG-20010904/DTD/svg10.dtd">
<svg version="1.0" xmlns="http://www.w3.org/2000/svg"
 width="1024.000000pt" height="1024.000000pt" viewBox="0 0 1024.000000 1024.000000"
 preserveAspectRatio="xMidYMid meet">

<g transform="translate(0.000000,1024.000000) scale(0.100000,-0.100000)"
fill="#000000" stroke="none">
<path d="M0 5120 l0 -5120 5120 0 5120 0 0 5120 0 5120 -5120 0 -5120 0 0
-5120z m5160 4726 c0 -31 67 -211 119 -321 127 -266 301 -496 444 -590 l29
-18 -29 -15 c-90 -47 -189 -151 -235 -249 -126 -267 11 -547 324 -661 67 -25
85 -27 228 -27 143 0 161 2 227 27 224 83 346 256 330 469 -5 64 -26 138 -61
220 -6 13 16 30 101 80 151 88 425 228 573 292 188 82 179 82 130 -5 -168
-295 -303 -663 -375 -1018 -29 -141 -75 -469 -75 -531 0 -35 -3 -40 -17 -34
-107 41 -476 99 -793 125 -407 33 -1218 43 -1640 20 -412 -22 -750 -69 -968
-135 -26 -8 -50 -15 -54 -15 -8 0 -12 21 -33 205 -53 457 -192 902 -398 1270
-28 50 -64 109 -80 133 -16 24 -27 46 -24 48 20 20 781 -348 842 -407 6 -6 3
-19 -7 -37 -9 -15 -23 -49 -33 -77 -80 -235 11 -464 227 -569 105 -52 184 -69
313 -68 201 1 354 60 481 187 153 152 183 331 89 522 -39 80 -138 181 -219
224 -25 13 -46 27 -46 30 0 4 18 19 41 34 62 44 226 221 301 326 90 125 196
337 238 476 19 61 38 109 42 107 4 -3 8 -11 8 -18z m1655 -2706 c414 -39 749
-191 1013 -458 62 -63 111 -116 110 -117 -2 -2 -41 10 -88 26 -148 49 -253 63
-465 63 -156 -1 -208 -5 -292 -23 -99 -20 -239 -65 -256 -81 -4 -4 61 -10 145
-13 272 -11 478 -76 708 -224 114 -74 305 -267 389 -393 238 -358 343 -807
301 -1290 -12 -138 -20 -184 -30 -173 -4 4 -19 42 -34 85 -35 97 -143 310
-210 413 -136 208 -310 380 -464 459 -42 22 -59 17 -34 -9 90 -97 178 -228
246 -362 191 -383 216 -847 66 -1268 -31 -85 -110 -255 -133 -283 -8 -10 -21
16 -52 105 -89 254 -168 403 -277 517 -209 222 -480 233 -682 28 -63 -64 -122
-154 -130 -197 -6 -31 -3 -41 25 -73 58 -65 84 -136 84 -227 0 -69 -4 -88 -30
-138 -48 -95 -179 -199 -300 -237 -38 -13 -39 -13 -15 -22 36 -14 159 8 252
45 43 16 81 27 84 24 13 -13 -55 -134 -102 -181 -59 -60 -130 -94 -212 -102
-34 -4 -59 -10 -57 -14 2 -4 29 -15 59 -24 69 -22 149 -9 215 33 25 17 47 28
49 26 2 -2 -10 -33 -27 -68 -94 -196 -306 -307 -531 -276 -222 30 -540 190
-639 322 -63 82 -84 140 -85 227 -1 63 3 84 27 132 34 70 108 139 208 194 281
156 305 172 360 227 102 101 100 172 -5 226 -81 42 -188 41 -434 -3 -111 -20
-255 -49 -320 -65 l-117 -30 -77 20 c-111 28 -285 64 -433 89 -231 40 -372 16
-419 -72 -17 -31 -18 -41 -8 -74 25 -85 101 -145 345 -275 157 -84 237 -149
282 -230 27 -48 30 -63 30 -139 0 -73 -4 -93 -28 -142 -15 -31 -48 -79 -73
-107 -115 -128 -410 -273 -616 -304 -185 -27 -379 52 -483 197 -36 51 -82 146
-70 146 3 0 23 -11 43 -25 61 -40 135 -51 205 -31 32 9 55 21 52 27 -4 5 -10
7 -15 4 -13 -8 -111 15 -152 36 -50 26 -103 73 -137 123 -30 45 -65 126 -57
133 3 3 38 -8 78 -25 40 -16 97 -35 126 -41 66 -14 142 -14 142 -1 0 6 -6 10
-14 10 -33 0 -163 77 -220 130 -68 64 -110 137 -121 211 -12 84 39 226 97 267
74 53 -75 287 -232 366 -233 116 -472 33 -645 -226 -62 -91 -143 -264 -195
-416 -30 -84 -46 -119 -52 -110 -31 45 -112 220 -141 305 -150 429 -121 882
79 1262 68 128 137 230 216 316 71 77 58 85 -41 26 -209 -124 -417 -379 -577
-706 -40 -82 -79 -169 -86 -192 -24 -78 -31 -55 -49 149 -50 584 156 1178 531
1531 249 235 581 367 919 367 68 0 111 4 105 9 -19 18 -156 61 -266 83 -93 18
-146 22 -298 22 -201 0 -300 -14 -443 -60 -43 -15 -81 -24 -84 -20 -12 12 235
244 321 300 164 108 369 192 577 237 135 30 419 37 560 15 425 -67 909 -287
1228 -558 40 -35 81 -69 91 -76 15 -11 28 -3 106 64 384 330 907 558 1349 587
104 7 123 7 230 -3z m-3964 -3521 c32 -349 135 -675 285 -900 61 -92 172 -205
258 -262 l69 -46 -2 -73 c-4 -174 50 -457 124 -649 69 -178 183 -384 287 -517
l49 -63 -40 21 c-274 139 -601 386 -831 628 -359 375 -524 751 -506 1157 8
204 52 367 156 584 62 128 129 245 136 238 2 -2 9 -55 15 -118z m4692 -49
c134 -258 178 -417 185 -665 4 -147 1 -186 -18 -280 -28 -145 -59 -234 -126
-369 -177 -352 -482 -677 -894 -950 -162 -108 -338 -204 -316 -173 144 201
278 453 340 639 55 167 86 332 93 498 l6 145 56 35 c79 50 218 191 280 285 64
97 128 229 171 350 58 164 83 298 116 599 l6 60 18 -25 c11 -13 48 -80 83
-149z m-2261 -775 c518 -148 809 -365 859 -640 32 -178 -60 -420 -204 -536
l-39 -32 6 59 c4 32 2 91 -4 129 -11 73 -61 195 -79 195 -7 0 -11 -24 -11 -59
0 -198 -74 -324 -364 -621 -95 -96 -199 -205 -233 -242 -56 -63 -83 -82 -83
-58 0 5 -107 119 -239 254 -253 260 -323 343 -372 444 -33 68 -58 172 -59 242
l-1 45 -19 -23 c-43 -52 -63 -131 -64 -249 -1 -62 -4 -113 -7 -113 -15 0 -118
116 -152 172 -51 85 -78 175 -84 284 -6 107 8 162 67 264 118 201 377 360 773
475 84 24 160 44 169 45 9 0 72 -16 140 -35z"/>
<path d="M3395 5555 c-115 -25 -203 -70 -291 -147 -19 -17 -34 -34 -34 -39 0
-5 40 -9 90 -9 49 0 112 -5 140 -11 50 -11 54 -15 122 -106 125 -168 208 -235
333 -268 116 -30 283 -12 372 41 l43 25 11 -28 c38 -99 73 -303 85 -503 4 -63
10 -126 14 -140 7 -23 9 -21 32 30 92 204 148 505 148 799 0 132 -1 143 -17
136 -38 -14 -220 -55 -247 -55 -22 0 -46 17 -103 70 -118 113 -206 162 -357
200 -93 23 -247 26 -341 5z"/>
<path d="M6561 5559 c-141 -27 -255 -87 -366 -191 l-86 -81 -72 6 c-40 3 -100
13 -135 23 -34 9 -65 14 -70 10 -11 -12 -6 -322 7 -421 17 -121 56 -298 85
-382 31 -89 65 -167 71 -161 3 2 16 109 30 238 13 128 32 262 41 299 20 79 44
143 53 138 177 -97 399 -99 547 -4 52 33 147 135 209 224 28 40 60 77 72 82
22 10 103 25 196 36 26 4 47 9 47 13 -1 13 -94 81 -152 112 -90 48 -193 70
-322 69 -61 -1 -131 -5 -155 -10z"/>
</g>
</svg>
